<?xml version="1.0" encoding="UTF-8"?>
<!-- Generator: visioncortex VTracer 0.6.5 -->
<svg version="1.1" xmlns="http://www.w3.org/2000/svg" width="184" height="180">
<path d="M0 0 C0.51 0 0.51 0 3.06 0 C11.91 0.15 19.6 1.59 28 4.38 C28.89 4.64 29.79 4.91 30.71 5.18 C47.99 11.04 63.72 26.45 72 42.38 C81.99 63.35 83.74 85.67 76.38 107.89 C68.15 128.73 55.03 143.7 34.52 153.32 C12.17 162.66 -9.87 162.52 -32.31 153.75 C-39.75 150.34 -45.83 145.67 -52 140.38 C-52.33 140.09 -52.33 140.09 -54.02 138.67 C-68.81 125.02 -77.32 105.67 -78.39 85.73 C-79.05 63.62 -73.78 45.22 -59 28.38 C-58.44 27.68 -57.87 26.98 -57.29 26.27 C-43.42 9.47 -21.62 -0.04 0 0 Z " fill="#FC779E" transform="translate(89,8.625)"/>
<path d="M0 0 C0.51 0 0.51 0 3.06 0 C11.91 0.15 19.6 1.59 28 4.38 C28.89 4.64 29.79 4.91 30.71 5.18 C47.99 11.04 63.72 26.45 72 42.38 C81.99 63.35 83.74 85.67 76.38 107.89 C68.15 128.73 55.03 143.7 34.52 153.32 C12.17 162.66 -9.87 162.52 -32.31 153.75 C-39.75 150.34 -45.83 145.67 -52 140.38 C-52.33 140.09 -52.33 140.09 -54.02 138.67 C-68.81 125.02 -77.32 105.67 -78.39 85.73 C-79.05 63.62 -73.78 45.22 -59 28.38 C-58.44 27.68 -57.87 26.98 -57.29 26.27 C-43.42 9.47 -21.62 -0.04 0 0 Z M-44 39.38 C-55.88 53.61 -60.42 70.16 -59 88.38 C-57 104.47 -48.98 118.66 -36.33 128.7 C-20.59 140.36 -4.05 142.67 15.21 140.08 C19.05 139.33 22.48 138.04 26 136.38 C27 135.91 27.99 135.45 29.02 134.97 C43.89 127.17 53.74 114.61 59.24 98.92 C63.73 83.94 62.48 65.77 55.23 52.02 C46.48 37.02 34.65 25.94 17.82 20.7 C-5.25 15.02 -27.8 22.34 -44 39.38 Z " fill="#FAA2C3" transform="translate(89,8.625)"/>
<path d="M0 0 C8.4 3.32 12.96 14.36 16.77 21.98 C22.18 35.28 22.26 52.86 17.19 66.29 C16.8 67.18 16.4 68.08 16 69 C15.65 69.87 15.3 70.75 14.94 71.65 C11.88 78.54 7.29 83.7 2 89 C1.36 89.65 0.72 90.3 0.06 90.97 C-13.19 103.53 -29.46 105.8 -46.91 105.4 C-62.52 104.64 -75.36 96.49 -85.75 85.12 C-89.83 80.5 -89.83 80.5 -91 77 C-90.72 77.14 -90.72 77.14 -89.32 77.85 C-73.13 85.9 -57.01 90.44 -39.1 85.16 C-22.21 78.82 -7.96 69.1 -0.19 52.25 C0.56 50.51 1.29 48.76 2 47 C2.35 46.21 2.71 45.42 3.07 44.61 C8.03 30.64 5.5 13.31 0 0 Z " fill="#ED5283" transform="translate(130,44)"/>
<path d="M0 0 C3.88 2.59 6.7 5.65 8.81 9.88 C9.36 14.83 9.38 18.75 7.12 23.25 C3.53 27.33 0.34 30.47 -5.24 31.11 C-10.78 31.3 -13.84 30.62 -18.19 26.88 C-21.94 23.33 -22.94 20.23 -23.29 15.22 C-23.07 9.97 -21.5 6.16 -17.75 2.5 C-16.9 1.96 -16.06 1.43 -15.19 0.88 C-14.59 0.46 -13.99 0.05 -13.38 -0.38 C-8.7 -1.98 -4.55 -1.6 0 0 Z " fill="#FDB8D6" transform="translate(77.1875,48.125)"/>
<path d="M0 0 C14.29 0.73 25.13 7.33 36 16 C36.5 16.39 36.5 16.39 39.01 18.38 C53.11 30.31 62.82 48.98 64.48 67.45 C65.97 90.28 61.19 113.12 46.1 131 C31.66 146.99 10.78 156.73 -10.61 158.26 C-32.25 158.9 -51.59 152.07 -68 138 C-68.33 137.72 -68.33 137.72 -70.02 136.29 C-84.81 122.64 -93.32 103.29 -94.39 83.36 C-95.02 62.41 -90.44 44.4 -76.89 27.99 C-75.06 26.06 -73.18 24.52 -71 23 C-72.37 26 -73.98 28.26 -76.12 30.75 C-79.39 34.89 -81.87 39.19 -84.25 43.88 C-84.58 44.51 -84.91 45.15 -85.25 45.8 C-90.21 55.88 -91.53 65.58 -91.44 76.75 C-91.43 77.99 -91.42 79.23 -91.41 80.5 C-91 102.03 -82.74 119.71 -67.92 135.17 C-52.04 150.38 -31.77 155.47 -10.35 155.21 C9.58 154.65 26.96 145.79 41 132 C41.7 131.32 42.4 130.65 43.12 129.95 C58.43 114.07 62.59 92.99 62.27 71.65 C61.61 52.47 52.51 34.47 39 21 C27.65 10.95 14.52 4.88 0 1 C0 0.67 0 0.34 0 0 Z " fill="#3B2B4B" transform="translate(105,11)"/>
<path d="M0 0 C0.33 0 0.66 0 1 0 C2.18 15.07 -6.33 31.66 -15.9 43 C-26.82 55.1 -44.17 66.77 -60.76 68.25 C-62.84 68.25 -64.92 68.14 -67 68 C-67 67.67 -67 67.34 -67 67 C-66.13 66.84 -65.26 66.68 -64.36 66.52 C-47.13 63.15 -33.53 56.3 -21 44 C-20.65 43.66 -20.65 43.66 -18.88 41.95 C-8.24 30.92 -1.41 15.2 0 0 Z " fill="#402F4E" transform="translate(167,99)"/>
<path d="M0 0 C1.03 -0.01 2.05 -0.02 3.11 -0.02 C4.1 -0.02 5.09 -0.02 6.11 -0.02 C6.56 -0.01 6.56 -0.01 8.81 -0.01 C11.39 0.26 13.03 0.95 15.25 2.25 C14.5 2.26 13.75 2.28 12.98 2.29 C9.51 2.37 6.03 2.47 2.56 2.56 C1.38 2.59 0.2 2.61 -1.01 2.63 C-12.31 2.97 -22.94 4.65 -33 10 C-33.67 10.35 -34.35 10.69 -35.04 11.05 C-39.7 13.52 -43.87 16.32 -47.91 19.71 C-50.39 21.79 -53.03 23.5 -55.75 25.25 C-51.88 15.63 -39.73 10.09 -30.75 6.25 C-20.33 2.03 -11.24 -0.09 0 0 Z " fill="#3A2949" transform="translate(89.75,8.75)"/>
<path d="M0 0 C0.95 0.82 1.9 1.65 2.88 2.5 C3.52 3.05 4.17 3.6 4.84 4.16 C6.28 5.39 7.71 6.64 9.13 7.9 C28.19 24.22 49.78 26.66 74 27 C63.49 32.82 47.06 28.75 36.08 25.63 C22.48 21.5 8.91 13.4 0 2 C0 1.34 0 0.68 0 0 Z " fill="#2F2341" transform="translate(30,140)"/>
<path d="M0 0 C0.99 0.33 1.98 0.66 3 1 C3.12 1.71 3.24 2.43 3.37 3.16 C4.31 8.55 5.37 13.77 7 19 C7.99 18.67 8.98 18.34 10 18 C10.66 20.31 11.32 22.62 12 25 C12.66 25 13.32 25 14 25 C14.66 26.98 15.32 28.96 16 31 C16.66 31 17.32 31 18 31 C19.35 32.99 20.69 34.99 22 37 C22.66 37.33 23.32 37.66 24 38 C24 38.66 24 39.32 24 40 C24.66 40 25.32 40 26 40 C27.63 42 27.63 42 29 44 C28.67 44.66 28.34 45.32 28 46 C14.91 34.95 4.44 21.95 0 5 C-0.12 2.12 -0.12 2.12 0 0 Z " fill="#E4A3C3" transform="translate(15,106)"/>
<path d="M0 0 C3.64 1.43 4.87 2.99 6.62 6.44 C7.99 9.09 9.34 11.51 11 14 C11 14.99 11 15.98 11 17 C11.66 17 12.32 17 13 17 C13.39 19.64 13.4 21.39 11.92 23.67 C10.68 25.17 9.34 26.59 8 28 C7.67 28 7.34 28 7 28 C6.89 27.44 6.79 26.87 6.68 26.29 C6.19 23.69 5.69 21.1 5.19 18.5 C5.1 18.06 5.1 18.06 4.69 15.81 C3.61 10.27 2.13 5.23 0 0 Z " fill="#EB4D7D" transform="translate(130,44)"/>
<path d="M0 0 C0.66 0.33 1.32 0.66 2 1 C0 4 0 4 -3 5 C-3.62 5.82 -4.24 6.65 -4.88 7.5 C-7.27 10.32 -8.4 10.7 -12 11 C-12.06 11.56 -12.12 12.11 -12.19 12.69 C-13.34 15.97 -15.49 17.61 -18 20 C-18.89 21.07 -19.76 22.16 -20.62 23.25 C-23 26 -23 26 -26 27 C-24.65 18.11 -15.05 10.78 -8.31 5.66 C-5.58 3.7 -2.84 1.8 0 0 Z " fill="#E9A4C5" transform="translate(52,20)"/>
<path d="M0 0 C1.18 -0.02 2.35 -0.04 3.57 -0.06 C10.82 -0.09 16.96 0.67 23.75 3.25 C23.42 3.91 23.09 4.57 22.75 5.25 C19.03 5.45 17.98 5.4 14.75 3.25 C12.14 3.01 9.63 2.88 7.02 2.84 C6.27 2.82 5.52 2.8 4.75 2.78 C2.35 2.72 -0.04 2.67 -2.44 2.62 C-4.06 2.59 -5.69 2.55 -7.31 2.51 C-11.29 2.41 -15.27 2.33 -19.25 2.25 C-19.25 1.92 -19.25 1.59 -19.25 1.25 C-12.81 0.05 -6.53 0.03 0 0 Z " fill="#E0A0C1" transform="translate(91.25,10.75)"/>
<path d="M0 0 C4.51 1.42 6.7 3.7 10 7 C16.9 12.17 24.46 14.91 33 16 C32.84 16.5 32.84 16.5 32 19 C21.16 17.89 9.36 11.27 2.31 3.06 C1.93 2.56 1.93 2.56 0 0 Z " fill="#E45885" transform="translate(45,129)"/>
<path d="M0 0 C0.99 0.33 1.98 0.66 3 1 C-8.75 10.56 -24.82 8.43 -39 8 C-39 7.67 -39 7.34 -39 7 C-38.48 6.97 -38.48 6.97 -35.86 6.82 C-34.49 6.73 -33.12 6.65 -31.75 6.56 C-31.07 6.52 -30.39 6.48 -29.68 6.44 C-26.34 6.23 -23.23 5.87 -20 5 C-17.67 5 -15.33 5 -13 5 C-10.32 4.74 -7.67 4.37 -5 4 C-5 3.34 -5 2.68 -5 2 C-3.35 2 -1.7 2 0 2 C0 1.34 0 0.68 0 0 Z " fill="#E35E8B" transform="translate(116,141)"/>
<path d="M0 0 C0.33 0 0.66 0 1 0 C1.43 11.4 1.36 21.24 -3 32 C-3.31 32.77 -3.62 33.55 -3.93 34.35 C-4.58 35.91 -5.28 37.46 -6 39 C-6.33 39 -6.66 39 -7 39 C-7.38 33.77 -6.22 30.62 -4 26 C-3.34 26 -2.68 26 -2 26 C-2.33 23.36 -2.66 20.72 -3 18 C-2.34 18 -1.68 18 -1 18 C-0.84 15.03 -0.84 15.03 0 0 Z " fill="#E45C88" transform="translate(149,81)"/>
</svg>
